<svg width="100" height="100" viewBox="0 0 100 100" xmlns="http://www.w3.org/2000/svg">
  <defs>
    <linearGradient id="brainGradient" x1="0%" y1="0%" x2="100%" y2="100%">
      <stop offset="0%" style="stop-color:#4361ee;stop-opacity:1" />
      <stop offset="100%" style="stop-color:#4cc9f0;stop-opacity:1" />
    </linearGradient>
  </defs>
  
  <!-- Brain Outline -->
  <path d="M50 15 C65 15 75 25 75 40 C80 45 80 55 75 60 C75 75 65 85 50 85 C35 85 25 75 25 60 C20 55 20 45 25 40 C25 25 35 15 50 15 Z" 
        fill="url(#brainGradient)" opacity="0.2"/>
  
  <!-- Brain Structure -->
  <path d="M50 20 C62 20 70 28 70 40 C70 52 62 60 50 60 C38 60 30 52 30 40 C30 28 38 20 50 20 Z" 
        fill="none" stroke="url(#brainGradient)" stroke-width="3"/>
  
  <!-- Neural Connections -->
  <circle cx="40" cy="35" r="3" fill="#4361ee"/>
  <circle cx="60" cy="35" r="3" fill="#4361ee"/>
  <circle cx="35" cy="50" r="3" fill="#4cc9f0"/>
  <circle cx="65" cy="50" r="3" fill="#4cc9f0"/>
  <circle cx="50" cy="45" r="3" fill="#4361ee"/>
  <circle cx="45" cy="60" r="3" fill="#4cc9f0"/>
  <circle cx="55" cy="60" r="3" fill="#4cc9f0"/>
  
  <!-- Connection Lines -->
  <path d="M40 35 Q50 40 60 35" stroke="#4361ee" stroke-width="2" fill="none" opacity="0.6"/>
  <path d="M35 50 Q50 45 65 50" stroke="#4cc9f0" stroke-width="2" fill="none" opacity="0.6"/>
  <path d="M45 60 Q50 55 55 60" stroke="#4cc9f0" stroke-width="2" fill="none" opacity="0.6"/>
  
  <!-- Processing Animation -->
  <circle cx="50" cy="75" r="2" fill="#4361ee">
    <animate attributeName="opacity" values="0;1;0" dur="2s" repeatCount="indefinite"/>
  </circle>
  <circle cx="45" cy="78" r="2" fill="#4cc9f0">
    <animate attributeName="opacity" values="0;1;0" dur="2s" repeatCount="indefinite" begin="0.5s"/>
  </circle>
  <circle cx="55" cy="78" r="2" fill="#4361ee">
    <animate attributeName="opacity" values="0;1;0" dur="2s" repeatCount="indefinite" begin="1s"/>
  </circle>
</svg>
