<svg width="300" height="400" viewBox="0 0 300 400" xmlns="http://www.w3.org/2000/svg">
  <defs>
    <linearGradient id="paperGradient" x1="0%" y1="0%" x2="100%" y2="100%">
      <stop offset="0%" style="stop-color:#ffffff;stop-opacity:1" />
      <stop offset="100%" style="stop-color:#f8f9fa;stop-opacity:1" />
    </linearGradient>
    <filter id="paperShadow" x="-20%" y="-20%" width="140%" height="140%">
      <feDropShadow dx="5" dy="5" stdDeviation="8" flood-color="#000000" flood-opacity="0.2"/>
    </filter>
  </defs>
  
  <!-- Ticket Background -->
  <rect x="20" y="20" width="260" height="360" rx="10" fill="url(#paperGradient)" filter="url(#paperShadow)" stroke="#e9ecef" stroke-width="2"/>
  
  <!-- Header -->
  <rect x="40" y="40" width="220" height="60" fill="#4361ee" opacity="0.1" rx="5"/>
  <text x="150" y="60" text-anchor="middle" font-family="Arial, sans-serif" font-size="16" font-weight="bold" fill="#4361ee">SUPERMARCHÉ ABC</text>
  <text x="150" y="80" text-anchor="middle" font-family="Arial, sans-serif" font-size="12" fill="#6c757d">123 Rue de la Paix, Tunis</text>
  
  <!-- Ticket Info -->
  <text x="50" y="120" font-family="Arial, sans-serif" font-size="11" fill="#495057">Ticket N°: 2025-001234</text>
  <text x="50" y="140" font-family="Arial, sans-serif" font-size="11" fill="#495057">Date: 07/08/2025 14:30</text>
  <text x="50" y="160" font-family="Arial, sans-serif" font-size="11" fill="#495057">Caissier: Marie D.</text>
  
  <!-- Separator Line -->
  <line x1="40" y1="180" x2="260" y2="180" stroke="#dee2e6" stroke-width="1" stroke-dasharray="5,5"/>
  
  <!-- Items -->
  <text x="50" y="200" font-family="Arial, sans-serif" font-size="10" font-weight="bold" fill="#495057">ARTICLES</text>
  
  <text x="50" y="220" font-family="Arial, sans-serif" font-size="10" fill="#495057">Pain complet</text>
  <text x="230" y="220" font-family="Arial, sans-serif" font-size="10" fill="#495057" text-anchor="end">2.500 DT</text>
  
  <text x="50" y="240" font-family="Arial, sans-serif" font-size="10" fill="#495057">Lait 1L</text>
  <text x="230" y="240" font-family="Arial, sans-serif" font-size="10" fill="#495057" text-anchor="end">1.800 DT</text>
  
  <text x="50" y="260" font-family="Arial, sans-serif" font-size="10" fill="#495057">Fromage blanc</text>
  <text x="230" y="260" font-family="Arial, sans-serif" font-size="10" fill="#495057" text-anchor="end">3.200 DT</text>
  
  <text x="50" y="280" font-family="Arial, sans-serif" font-size="10" fill="#495057">Yaourt nature x6</text>
  <text x="230" y="280" font-family="Arial, sans-serif" font-size="10" fill="#495057" text-anchor="end">4.500 DT</text>
  
  <!-- Separator Line -->
  <line x1="40" y1="300" x2="260" y2="300" stroke="#dee2e6" stroke-width="1"/>
  
  <!-- Subtotal -->
  <text x="50" y="320" font-family="Arial, sans-serif" font-size="10" fill="#495057">Sous-total:</text>
  <text x="230" y="320" font-family="Arial, sans-serif" font-size="10" fill="#495057" text-anchor="end">12.000 DT</text>
  
  <!-- Fiscal Stamp -->
  <text x="50" y="340" font-family="Arial, sans-serif" font-size="10" fill="#495057">TIMBRE FISCAL:</text>
  <text x="230" y="340" font-family="Arial, sans-serif" font-size="10" fill="#495057" text-anchor="end">0.100 DT</text>
  
  <!-- Total -->
  <rect x="40" y="350" width="220" height="25" fill="#28a745" opacity="0.1" rx="3"/>
  <text x="50" y="367" font-family="Arial, sans-serif" font-size="12" font-weight="bold" fill="#28a745">TOTAL:</text>
  <text x="230" y="367" font-family="Arial, sans-serif" font-size="12" font-weight="bold" fill="#28a745" text-anchor="end">12.100 DT</text>
  
  <!-- Barcode representation -->
  <g transform="translate(60, 385)">
    <rect x="0" y="0" width="2" height="10" fill="#000"/>
    <rect x="4" y="0" width="1" height="10" fill="#000"/>
    <rect x="7" y="0" width="3" height="10" fill="#000"/>
    <rect x="12" y="0" width="1" height="10" fill="#000"/>
    <rect x="15" y="0" width="2" height="10" fill="#000"/>
    <rect x="19" y="0" width="1" height="10" fill="#000"/>
    <rect x="22" y="0" width="3" height="10" fill="#000"/>
    <rect x="27" y="0" width="2" height="10" fill="#000"/>
    <rect x="31" y="0" width="1" height="10" fill="#000"/>
    <rect x="34" y="0" width="2" height="10" fill="#000"/>
    <rect x="38" y="0" width="1" height="10" fill="#000"/>
    <rect x="41" y="0" width="3" height="10" fill="#000"/>
    <rect x="46" y="0" width="1" height="10" fill="#000"/>
    <rect x="49" y="0" width="2" height="10" fill="#000"/>
    <rect x="53" y="0" width="1" height="10" fill="#000"/>
    <rect x="56" y="0" width="3" height="10" fill="#000"/>
    <rect x="61" y="0" width="2" height="10" fill="#000"/>
    <rect x="65" y="0" width="1" height="10" fill="#000"/>
    <rect x="68" y="0" width="2" height="10" fill="#000"/>
    <rect x="72" y="0" width="1" height="10" fill="#000"/>
    <rect x="75" y="0" width="3" height="10" fill="#000"/>
    <rect x="80" y="0" width="1" height="10" fill="#000"/>
    <rect x="83" y="0" width="2" height="10" fill="#000"/>
    <rect x="87" y="0" width="1" height="10" fill="#000"/>
    <rect x="90" y="0" width="3" height="10" fill="#000"/>
    <rect x="95" y="0" width="2" height="10" fill="#000"/>
    <rect x="99" y="0" width="1" height="10" fill="#000"/>
    <rect x="102" y="0" width="2" height="10" fill="#000"/>
    <rect x="106" y="0" width="1" height="10" fill="#000"/>
    <rect x="109" y="0" width="3" height="10" fill="#000"/>
    <rect x="114" y="0" width="1" height="10" fill="#000"/>
    <rect x="117" y="0" width="2" height="10" fill="#000"/>
    <rect x="121" y="0" width="1" height="10" fill="#000"/>
    <rect x="124" y="0" width="3" height="10" fill="#000"/>
    <rect x="129" y="0" width="2" height="10" fill="#000"/>
    <rect x="133" y="0" width="1" height="10" fill="#000"/>
    <rect x="136" y="0" width="2" height="10" fill="#000"/>
    <rect x="140" y="0" width="1" height="10" fill="#000"/>
    <rect x="143" y="0" width="3" height="10" fill="#000"/>
    <rect x="148" y="0" width="1" height="10" fill="#000"/>
    <rect x="151" y="0" width="2" height="10" fill="#000"/>
    <rect x="155" y="0" width="1" height="10" fill="#000"/>
    <rect x="158" y="0" width="3" height="10" fill="#000"/>
    <rect x="163" y="0" width="2" height="10" fill="#000"/>
    <rect x="167" y="0" width="1" height="10" fill="#000"/>
    <rect x="170" y="0" width="2" height="10" fill="#000"/>
    <rect x="174" y="0" width="1" height="10" fill="#000"/>
    <rect x="177" y="0" width="3" height="10" fill="#000"/>
  </g>
</svg>
