<svg width="100" height="100" viewBox="0 0 100 100" xmlns="http://www.w3.org/2000/svg">
  <defs>
    <linearGradient id="docGradient" x1="0%" y1="0%" x2="100%" y2="100%">
      <stop offset="0%" style="stop-color:#28a745;stop-opacity:1" />
      <stop offset="100%" style="stop-color:#20c997;stop-opacity:1" />
    </linearGradient>
  </defs>
  
  <!-- Document -->
  <rect x="25" y="20" width="50" height="60" rx="5" fill="white" stroke="url(#docGradient)" stroke-width="2"/>
  
  <!-- Document Content -->
  <rect x="30" y="30" width="40" height="2" fill="url(#docGradient)" opacity="0.8"/>
  <rect x="30" y="38" width="35" height="2" fill="#6c757d" opacity="0.6"/>
  <rect x="30" y="46" width="40" height="2" fill="#6c757d" opacity="0.6"/>
  <rect x="30" y="54" width="30" height="2" fill="#6c757d" opacity="0.6"/>
  <rect x="30" y="62" width="35" height="2" fill="#6c757d" opacity="0.6"/>
  <rect x="30" y="70" width="40" height="2" fill="url(#docGradient)" opacity="0.8"/>
  
  <!-- Scanning Lines -->
  <rect x="20" y="15" width="60" height="2" fill="#ff6b6b" opacity="0.8">
    <animate attributeName="y" values="15;85;15" dur="3s" repeatCount="indefinite"/>
    <animate attributeName="opacity" values="0.8;0.3;0.8" dur="3s" repeatCount="indefinite"/>
  </rect>
  
  <!-- Scanner Frame -->
  <rect x="15" y="10" width="70" height="80" rx="8" fill="none" stroke="url(#docGradient)" stroke-width="2" opacity="0.5"/>
  
  <!-- Corner Indicators -->
  <path d="M15 18 L15 10 L23 10" stroke="#ff6b6b" stroke-width="3" fill="none"/>
  <path d="M77 10 L85 10 L85 18" stroke="#ff6b6b" stroke-width="3" fill="none"/>
  <path d="M85 82 L85 90 L77 90" stroke="#ff6b6b" stroke-width="3" fill="none"/>
  <path d="M23 90 L15 90 L15 82" stroke="#ff6b6b" stroke-width="3" fill="none"/>
</svg>
