<svg width="1200" height="400" viewBox="0 0 1200 400" xmlns="http://www.w3.org/2000/svg">
  <defs>
    <linearGradient id="heroGradient" x1="0%" y1="0%" x2="100%" y2="100%">
      <stop offset="0%" style="stop-color:#667eea;stop-opacity:0.8" />
      <stop offset="100%" style="stop-color:#764ba2;stop-opacity:0.8" />
    </linearGradient>
    <pattern id="grid" width="40" height="40" patternUnits="userSpaceOnUse">
      <path d="M 40 0 L 0 0 0 40" fill="none" stroke="rgba(255,255,255,0.1)" stroke-width="1"/>
    </pattern>
  </defs>
  
  <!-- Background -->
  <rect width="1200" height="400" fill="url(#heroGradient)"/>
  <rect width="1200" height="400" fill="url(#grid)"/>
  
  <!-- Floating Elements -->
  <circle cx="100" cy="80" r="20" fill="rgba(255,255,255,0.1)" opacity="0.8">
    <animate attributeName="cy" values="80;60;80" dur="3s" repeatCount="indefinite"/>
  </circle>
  <circle cx="1100" cy="120" r="15" fill="rgba(255,255,255,0.1)" opacity="0.6">
    <animate attributeName="cy" values="120;140;120" dur="4s" repeatCount="indefinite"/>
  </circle>
  <circle cx="200" cy="300" r="25" fill="rgba(255,255,255,0.1)" opacity="0.7">
    <animate attributeName="cy" values="300;280;300" dur="3.5s" repeatCount="indefinite"/>
  </circle>
  
  <!-- Document Icons -->
  <g transform="translate(900, 50)" opacity="0.3">
    <rect width="60" height="80" rx="5" fill="white"/>
    <rect x="10" y="15" width="40" height="2" fill="#4361ee"/>
    <rect x="10" y="25" width="35" height="2" fill="#4361ee"/>
    <rect x="10" y="35" width="40" height="2" fill="#4361ee"/>
    <rect x="10" y="45" width="30" height="2" fill="#4361ee"/>
  </g>
  
  <g transform="translate(980, 80)" opacity="0.2">
    <rect width="50" height="70" rx="5" fill="white"/>
    <rect x="8" y="12" width="34" height="2" fill="#4361ee"/>
    <rect x="8" y="20" width="30" height="2" fill="#4361ee"/>
    <rect x="8" y="28" width="34" height="2" fill="#4361ee"/>
  </g>
</svg>
