<svg width="300" height="200" viewBox="0 0 300 200" xmlns="http://www.w3.org/2000/svg">
  <defs>
    <linearGradient id="docGradient" x1="0%" y1="0%" x2="100%" y2="100%">
      <stop offset="0%" style="stop-color:#f8f9fa;stop-opacity:1" />
      <stop offset="100%" style="stop-color:#e9ecef;stop-opacity:1" />
    </linearGradient>
    <filter id="docShadow" x="-20%" y="-20%" width="140%" height="140%">
      <feDropShadow dx="3" dy="3" stdDeviation="5" flood-color="#000000" flood-opacity="0.2"/>
    </filter>
  </defs>
  
  <!-- Document -->
  <rect x="50" y="30" width="120" height="140" rx="8" fill="url(#docGradient)" filter="url(#docShadow)" stroke="#dee2e6" stroke-width="2"/>
  
  <!-- Document Content Lines -->
  <rect x="65" y="50" width="90" height="3" fill="#4361ee" opacity="0.8"/>
  <rect x="65" y="65" width="75" height="2" fill="#6c757d" opacity="0.6"/>
  <rect x="65" y="75" width="85" height="2" fill="#6c757d" opacity="0.6"/>
  <rect x="65" y="85" width="70" height="2" fill="#6c757d" opacity="0.6"/>
  <rect x="65" y="95" width="80" height="2" fill="#6c757d" opacity="0.6"/>
  <rect x="65" y="105" width="65" height="2" fill="#6c757d" opacity="0.6"/>
  
  <!-- Total Line -->
  <rect x="65" y="125" width="90" height="3" fill="#28a745" opacity="0.8"/>
  <rect x="65" y="135" width="60" height="2" fill="#28a745" opacity="0.6"/>
  
  <!-- Arrow -->
  <path d="M 180 100 L 220 100" stroke="#4361ee" stroke-width="3" marker-end="url(#arrowhead)"/>
  
  <!-- Arrow Marker -->
  <defs>
    <marker id="arrowhead" markerWidth="10" markerHeight="7" refX="9" refY="3.5" orient="auto">
      <polygon points="0 0, 10 3.5, 0 7" fill="#4361ee"/>
    </marker>
  </defs>
  
  <!-- AI Brain -->
  <circle cx="250" cy="100" r="30" fill="#4361ee" opacity="0.1" filter="url(#docShadow)"/>
  <circle cx="250" cy="100" r="25" fill="none" stroke="#4361ee" stroke-width="2"/>
  
  <!-- Brain Connections -->
  <circle cx="240" cy="90" r="3" fill="#4361ee"/>
  <circle cx="260" cy="90" r="3" fill="#4361ee"/>
  <circle cx="235" cy="105" r="3" fill="#4361ee"/>
  <circle cx="265" cy="105" r="3" fill="#4361ee"/>
  <circle cx="250" cy="115" r="3" fill="#4361ee"/>
  
  <path d="M 240 90 Q 250 95 260 90" stroke="#4361ee" stroke-width="1.5" fill="none"/>
  <path d="M 235 105 Q 250 110 265 105" stroke="#4361ee" stroke-width="1.5" fill="none"/>
  
  <!-- Processing Dots -->
  <circle cx="200" cy="85" r="2" fill="#4cc9f0">
    <animate attributeName="opacity" values="0;1;0" dur="1.5s" repeatCount="indefinite" begin="0s"/>
  </circle>
  <circle cx="200" cy="100" r="2" fill="#4cc9f0">
    <animate attributeName="opacity" values="0;1;0" dur="1.5s" repeatCount="indefinite" begin="0.5s"/>
  </circle>
  <circle cx="200" cy="115" r="2" fill="#4cc9f0">
    <animate attributeName="opacity" values="0;1;0" dur="1.5s" repeatCount="indefinite" begin="1s"/>
  </circle>
</svg>
